<mxfile host="Electron" agent="Mozilla/5.0 (Macintosh; Intel Mac OS X 10_15_7) AppleWebKit/537.36 (KHTML, like Gecko) draw.io/24.7.17 Chrome/128.0.6613.36 Electron/32.0.1 Safari/537.36" version="24.7.17">
  <diagram id="hYPCOe4nbvXmTGqKFv47" name="Page-1">
    <mxGraphModel dx="1136" dy="823" grid="0" gridSize="10" guides="1" tooltips="1" connect="1" arrows="1" fold="1" page="0" pageScale="1" pageWidth="827" pageHeight="1169" background="none" math="0" shadow="0">
      <root>
        <mxCell id="0" />
        <mxCell id="1" parent="0" />
        <mxCell id="3" value="" style="html=1;points=[];perimeter=orthogonalPerimeter;" parent="1" vertex="1">
          <mxGeometry x="50" y="135" width="10" height="615" as="geometry" />
        </mxCell>
        <mxCell id="4" value="" style="html=1;points=[];perimeter=orthogonalPerimeter;" parent="1" vertex="1">
          <mxGeometry x="760" y="135" width="10" height="615" as="geometry" />
        </mxCell>
        <mxCell id="6" value="初次发送请求 Get xxxxx.com/xxxx" style="text;html=1;align=center;verticalAlign=middle;resizable=0;points=[];autosize=1;strokeColor=none;fillColor=none;" parent="1" vertex="1">
          <mxGeometry x="245" y="135" width="200" height="30" as="geometry" />
        </mxCell>
        <mxCell id="7" value="" style="endArrow=classic;html=1;dashed=1;" parent="1" edge="1">
          <mxGeometry width="50" height="50" relative="1" as="geometry">
            <mxPoint x="70" y="165" as="sourcePoint" />
            <mxPoint x="750" y="165" as="targetPoint" />
            <Array as="points">
              <mxPoint x="420" y="165" />
            </Array>
          </mxGeometry>
        </mxCell>
        <mxCell id="8" value="Client" style="text;html=1;align=center;verticalAlign=middle;resizable=0;points=[];autosize=1;strokeColor=none;fillColor=none;" parent="1" vertex="1">
          <mxGeometry x="30" y="105" width="50" height="30" as="geometry" />
        </mxCell>
        <mxCell id="9" value="Server" style="text;html=1;align=center;verticalAlign=middle;resizable=0;points=[];autosize=1;strokeColor=none;fillColor=none;" parent="1" vertex="1">
          <mxGeometry x="735" y="100" width="60" height="30" as="geometry" />
        </mxCell>
        <mxCell id="11" value="" style="endArrow=classic;html=1;dashed=1;" parent="1" edge="1">
          <mxGeometry width="50" height="50" relative="1" as="geometry">
            <mxPoint x="750" y="215" as="sourcePoint" />
            <mxPoint x="70" y="217" as="targetPoint" />
          </mxGeometry>
        </mxCell>
        <mxCell id="13" value="&lt;span style=&quot;background-color: rgb(255, 255, 255);&quot;&gt;响应标头，返回 Cache-Control、&lt;span style=&quot;font-family: Menlo, Monaco, &amp;quot;Courier New&amp;quot;, monospace;&quot;&gt;Expires、ETag、Last-Modified&lt;/span&gt;&lt;/span&gt;" style="text;html=1;align=center;verticalAlign=middle;resizable=0;points=[];autosize=1;strokeColor=none;fillColor=none;" parent="1" vertex="1">
          <mxGeometry x="184" y="187" width="392" height="26" as="geometry" />
        </mxCell>
        <mxCell id="15" value="再次发送请求 Get xxxxx.com/xxxx" style="text;html=1;align=center;verticalAlign=middle;resizable=0;points=[];autosize=1;strokeColor=none;fillColor=none;" parent="1" vertex="1">
          <mxGeometry x="120" y="245" width="200" height="30" as="geometry" />
        </mxCell>
        <mxCell id="16" value="" style="curved=1;endArrow=classic;html=1;dashed=1;" parent="1" edge="1">
          <mxGeometry width="50" height="50" relative="1" as="geometry">
            <mxPoint x="63" y="275" as="sourcePoint" />
            <mxPoint x="63" y="365" as="targetPoint" />
            <Array as="points">
              <mxPoint x="150" y="285" />
              <mxPoint x="170" y="355" />
            </Array>
          </mxGeometry>
        </mxCell>
        <mxCell id="17" value="&lt;span style=&quot;font-family: Helvetica; font-size: 12px; font-style: normal; font-variant-ligatures: normal; font-variant-caps: normal; font-weight: 400; letter-spacing: normal; orphans: 2; text-align: center; text-indent: 0px; text-transform: none; widows: 2; word-spacing: 0px; -webkit-text-stroke-width: 0px; text-decoration-thickness: initial; text-decoration-style: initial; text-decoration-color: initial; float: none; display: inline !important;&quot;&gt;&lt;span style=&quot;background-color: rgb(255, 255, 255);&quot;&gt;根据上一次存储的 Cache-Control、Expires，判断是否直接使用强缓存&lt;br&gt;若没过期，则直接使用强缓存，结束&lt;/span&gt;&lt;br&gt;&lt;/span&gt;" style="text;html=1;align=center;verticalAlign=middle;resizable=0;points=[];autosize=1;strokeColor=none;fillColor=none;" parent="1" vertex="1">
          <mxGeometry x="165" y="300" width="391" height="41" as="geometry" />
        </mxCell>
        <mxCell id="19" value="" style="endArrow=classic;html=1;dashed=1;" parent="1" edge="1">
          <mxGeometry width="50" height="50" relative="1" as="geometry">
            <mxPoint x="60" y="445" as="sourcePoint" />
            <mxPoint x="750" y="445" as="targetPoint" />
            <Array as="points">
              <mxPoint x="420" y="445" />
            </Array>
          </mxGeometry>
        </mxCell>
        <mxCell id="20" value="如果强缓存过期，走协商缓存" style="text;html=1;align=center;verticalAlign=middle;resizable=0;points=[];autosize=1;strokeColor=none;fillColor=none;" parent="1" vertex="1">
          <mxGeometry x="75" y="410" width="180" height="30" as="geometry" />
        </mxCell>
        <mxCell id="22" value="请求头：&lt;br&gt;If-None-Match 带上上一次Server返回的ETag&lt;br&gt;If-Modified-Since带上上一次Server返回的Last-Modified" style="text;html=1;align=left;verticalAlign=middle;resizable=0;points=[];autosize=1;strokeColor=none;fillColor=none;" parent="1" vertex="1">
          <mxGeometry x="270" y="380" width="320" height="60" as="geometry" />
        </mxCell>
        <mxCell id="23" value="" style="curved=1;endArrow=classic;html=1;dashed=1;exitX=-0.3;exitY=0.679;exitDx=0;exitDy=0;exitPerimeter=0;entryX=-0.3;entryY=0.823;entryDx=0;entryDy=0;entryPerimeter=0;" parent="1" edge="1">
          <mxGeometry width="50" height="50" relative="1" as="geometry">
            <mxPoint x="747" y="481.28999999999996" as="sourcePoint" />
            <mxPoint x="747" y="554.73" as="targetPoint" />
            <Array as="points">
              <mxPoint x="650" y="485" />
              <mxPoint x="640" y="505" />
              <mxPoint x="650" y="535" />
              <mxPoint x="680" y="555" />
            </Array>
          </mxGeometry>
        </mxCell>
        <mxCell id="24" value="根据Client的ETag和Last-Modified对比是否发生变化" style="text;html=1;align=center;verticalAlign=middle;resizable=0;points=[];autosize=1;strokeColor=none;fillColor=none;" parent="1" vertex="1">
          <mxGeometry x="340" y="500" width="300" height="30" as="geometry" />
        </mxCell>
        <mxCell id="25" value="" style="endArrow=classic;html=1;dashed=1;" parent="1" edge="1">
          <mxGeometry width="50" height="50" relative="1" as="geometry">
            <mxPoint x="750" y="600" as="sourcePoint" />
            <mxPoint x="70" y="602" as="targetPoint" />
          </mxGeometry>
        </mxCell>
        <mxCell id="26" value="未发生变化，返回304，让客户端使用缓存的资源" style="text;html=1;align=center;verticalAlign=middle;resizable=0;points=[];autosize=1;strokeColor=none;fillColor=none;" parent="1" vertex="1">
          <mxGeometry x="420" y="570" width="280" height="30" as="geometry" />
        </mxCell>
        <mxCell id="27" value="" style="endArrow=classic;html=1;dashed=1;" parent="1" edge="1">
          <mxGeometry width="50" height="50" relative="1" as="geometry">
            <mxPoint x="750" y="680" as="sourcePoint" />
            <mxPoint x="70" y="682" as="targetPoint" />
          </mxGeometry>
        </mxCell>
        <mxCell id="28" value="发生变化，返回新资源" style="text;html=1;align=center;verticalAlign=middle;resizable=0;points=[];autosize=1;strokeColor=none;fillColor=none;" parent="1" vertex="1">
          <mxGeometry x="490" y="650" width="140" height="30" as="geometry" />
        </mxCell>
      </root>
    </mxGraphModel>
  </diagram>
</mxfile>
